<svg width="321" height="416" viewBox="0 0 321 416" fill="none" xmlns="http://www.w3.org/2000/svg">
<path d="M184.158 80C184.158 94.24 177.838 107.12 167.918 115.84C168.078 114.56 168.214 113.28 168.214 112C168.214 110.64 168.03 109.36 168.03 108.08C168.03 108 168.03 108 168.03 107.92C168.03 92.16 152.35 80 136.03 80C119.71 80 104.03 92.16 104.03 107.92C104.03 108 104.03 108 104.03 108.08C104.03 109.36 103.974 110.64 103.974 112C103.974 113.28 104.142 114.56 104.302 115.84C94.3819 107.12 88.1099 94.24 88.1099 80C88.1099 53.52 109.654 32 136.134 32C162.614 32 184.158 53.52 184.158 80Z" fill="url(#paint0_linear_77_7)"/>
<path d="M289.75 224.04C282.614 223.632 275.758 225.6 270.006 229.552C265.654 217.48 254.806 208.72 241.79 208.04C232.902 207.568 224.502 210.68 218.078 216.776C217.334 217.48 216.758 218.328 216.094 219.096C210.222 212.352 201.678 208 192.07 208C186.206 208 184.03 209.704 176.03 212.472V149.16C200.03 134.864 216.142 108.792 216.142 80C216.142 35.888 180.262 0 136.15 0C92.0379 0 56.1419 35.888 56.1419 80C56.1419 108.704 72.0299 134.712 96.0299 149.032V276.008L69.2539 250.832C61.2779 243.344 50.4939 239.376 39.5659 240.144C28.6459 240.84 18.3899 246.064 11.4219 254.504L9.3579 257.008C-3.3061 272.344 -3.09811 294.424 9.86989 309.504L89.1499 401.76C96.9339 410.808 108.198 416 120.102 416H272.15C298.566 416 320.03 394.464 320.03 367.992V257.36C320.03 239.56 306.742 224.928 289.75 224.04ZM72.1419 80C72.1419 44.712 100.862 16 136.15 16C171.438 16 200.142 44.712 200.142 80C200.142 99.744 192.03 117.872 176.03 129.872V112C176.03 89.96 158.166 72.032 136.158 72C136.142 71.992 136.126 71.992 136.11 72H136.062C114.03 72.032 96.0299 89.96 96.0299 111.992V129.712C80.0299 117.704 72.1419 99.656 72.1419 80ZM304.03 367.992C304.03 385.64 289.742 400 272.15 400H120.054C112.862 400 106.022 396.832 101.286 391.328L22.0059 299.072C14.1339 289.904 14.0059 276.504 21.7019 267.192L23.7659 264.688C27.9899 259.576 33.9659 256.528 40.5899 256.112C47.2219 255.712 53.5259 257.952 58.3739 262.504L85.2059 287.68C89.9339 292.112 96.5579 293.272 102.502 290.696C108.446 288.12 112.142 282.504 112.142 276.024L112.166 111.992C112.166 98.776 122.91 88.016 136.126 88C149.31 88.016 160.03 98.776 160.03 112V256H176.03V240H176.102C176.102 231.176 183.254 224 192.062 224C200.87 224 208.03 231.176 208.03 240V256H224.03V240H224.102C224.102 235.552 225.878 231.432 229.094 228.376C232.302 225.328 236.47 223.72 240.942 224.024C249.27 224.456 256.03 232.232 256.03 241.36V256H272.054C272.054 251.56 273.83 247.44 277.046 244.384C280.254 241.336 284.422 239.744 288.91 240.024C297.262 240.464 304.03 248.232 304.03 257.36V367.992Z" fill="url(#paint1_linear_77_7)"/>
<path d="M211.838 139.072L224.438 148.928C239.95 129.08 248.158 105.24 248.158 79.9998C248.158 54.7438 239.95 30.8959 224.422 11.0479L211.822 20.9039C225.126 37.9118 232.158 58.3438 232.158 79.9998C232.158 101.64 225.126 122.072 211.838 139.072Z" fill="url(#paint2_linear_77_7)"/>
<path d="M60.4459 139.04C47.1659 122.04 40.1499 101.624 40.1499 80.0003C40.1499 58.3523 47.1739 37.9283 60.4699 20.9283L47.8699 11.0723C32.3579 30.9123 24.1499 54.7443 24.1499 80.0003C24.1499 105.224 32.3419 129.048 47.8299 148.88L60.4459 139.04Z" fill="url(#paint3_linear_77_7)"/>
<defs>
<linearGradient id="paint0_linear_77_7" x1="136.134" y1="24" x2="136.134" y2="106" gradientUnits="userSpaceOnUse">
<stop stop-color="#6DC7FF"/>
<stop offset="1" stop-color="#E6ABFF"/>
</linearGradient>
<linearGradient id="paint1_linear_77_7" x1="160.014" y1="-18" x2="160.014" y2="432.04" gradientUnits="userSpaceOnUse">
<stop stop-color="#1A6DFF"/>
<stop offset="1" stop-color="#C822FF"/>
</linearGradient>
<linearGradient id="paint2_linear_77_7" x1="229.982" y1="-18.0001" x2="229.982" y2="432.04" gradientUnits="userSpaceOnUse">
<stop stop-color="#1A6DFF"/>
<stop offset="1" stop-color="#C822FF"/>
</linearGradient>
<linearGradient id="paint3_linear_77_7" x1="42.3179" y1="-17.9997" x2="42.3179" y2="432.04" gradientUnits="userSpaceOnUse">
<stop stop-color="#1A6DFF"/>
<stop offset="1" stop-color="#C822FF"/>
</linearGradient>
</defs>
</svg>
