<svg width="148" height="164" viewBox="0 0 148 164" fill="none" xmlns="http://www.w3.org/2000/svg">
<path opacity="0.05" d="M109.05 153.98L109 124.99C109 120.295 107.9 115.71 105.79 111.555C133.995 105.89 147.72 89.215 147.72 60.67C147.72 49.395 144.395 39.44 137.84 31.07C138.34 29.485 138.71 27.845 138.94 26.165C139.88 19.32 138.825 14.845 137.975 11.245L137.84 10.665C136.91 6.68498 135.795 3.84498 135.75 3.72498L135.195 2.31498L134.64 0.904981L133.13 0.744983L131.615 0.584985C131.615 0.584985 130.62 0.47998 129.11 0.47998C127.015 0.47998 123.91 0.689981 120.975 1.68498L119.995 2.01498C116.295 3.25998 112.8 4.43998 107.91 7.35998C106.48 8.21498 104.915 9.18998 103.24 10.28C95.6701 8.40498 87.5251 7.44998 79.0001 7.44998C70.3901 7.44998 62.1751 8.40998 54.5551 10.305C52.8601 9.20498 51.2851 8.21998 49.8451 7.35998C44.9551 4.43998 41.4601 3.26498 37.7601 2.01498L36.7801 1.68498C33.8551 0.689981 30.7451 0.47998 28.6501 0.47998C27.1401 0.47998 26.1451 0.584985 26.1451 0.584985L24.6351 0.744983L23.1351 0.899983L22.5751 2.30498L22.0101 3.71998C21.9601 3.84998 20.8451 6.68998 19.9151 10.675L19.7801 11.25C18.9301 14.845 17.8751 19.325 18.8151 26.165C19.0551 27.895 19.4401 29.59 19.9651 31.22C13.5401 39.55 10.2851 49.45 10.2851 60.67C10.2851 89.145 24.0251 105.81 52.2701 111.52C51.3001 113.46 50.5451 115.51 50.0101 117.64C49.0251 117.975 48.1201 118.2 47.3201 118.325C46.1301 118.505 44.8851 118.595 43.6251 118.595C40.1951 118.595 37.5001 117.925 36.4501 117.3C34.8851 116.37 32.0901 113.665 29.3801 109.71C27.0651 106.335 23.4551 101.92 19.4201 100.075C15.9301 98.48 12.2351 97.565 9.2751 97.565C8.5851 97.565 7.9501 97.615 7.3951 97.705C4.8101 98.115 2.6501 99.535 1.4751 101.605C0.460101 103.39 0.3001 105.47 1.0351 107.31C2.1301 110.05 5.2901 112.235 7.7501 113.585C8.9601 114.25 11.5751 116.68 13.1001 119.13C14.2451 120.97 14.7751 122.28 15.5101 124.09C15.9451 125.165 16.4251 126.335 17.0751 127.75C19.4251 132.86 26.7601 137.37 27.5901 137.865C31.6201 140.28 38.3951 141.055 43.3751 141.28L43.9901 141.295H43.9951C45.1951 141.295 46.8451 141.18 49.0151 140.94V154.005C49.0251 156.65 46.3301 157.25 42.7651 157.195L45.5001 158.115C55.9751 161.86 67.2251 164 79.0001 164C90.7751 164 102.025 161.86 112.515 158.12L116.03 156.81C112.475 156.69 109.08 156.11 109.05 153.98Z" fill="black"/>
<path opacity="0.07" d="M112.905 157.985C110.875 158.22 106.5 157.44 106.5 154.01V124.99C106.5 119.52 104.86 114.235 101.82 109.73C131.395 104.945 145.215 89.265 145.215 60.67C145.215 49.485 141.785 39.7 135.02 31.56C135.705 29.735 136.185 27.81 136.46 25.825C137.335 19.445 136.38 15.395 135.54 11.82L135.405 11.24C134.515 7.43498 133.465 4.75498 133.42 4.64498L132.865 3.23498L131.35 3.07498C131.35 3.07498 130.46 2.97998 129.105 2.97998C127.2 2.97998 124.385 3.16498 121.775 4.05498L120.795 4.38498C117.225 5.58998 113.85 6.72498 109.19 9.50498C107.53 10.495 105.68 11.66 103.685 12.975C96.0199 10.97 87.7249 9.94998 78.9999 9.94998C70.1899 9.94998 61.8249 10.975 54.1049 13C52.0899 11.675 50.2299 10.505 48.5599 9.50498C43.8999 6.72498 40.5249 5.58498 36.9549 4.38498L35.9749 4.05498C33.3699 3.16998 30.5499 2.97998 28.6449 2.97998C27.2899 2.97998 26.3999 3.07498 26.3999 3.07498L24.8899 3.23498L24.3249 4.64998C24.2799 4.75998 23.2299 7.43998 22.3399 11.245L22.2049 11.825C21.3599 15.4 20.4049 19.445 21.2849 25.825C21.5649 27.86 22.0649 29.83 22.7749 31.695C16.1399 39.795 12.7799 49.53 12.7799 60.67C12.7799 89.185 26.6099 104.86 56.2099 109.7C54.2349 112.65 52.8549 115.975 52.1449 119.52C50.4949 120.17 48.9999 120.6 47.6899 120.8C46.3749 121 45.0049 121.1 43.6199 121.1C40.1699 121.1 36.8549 120.455 35.1699 119.455C32.9699 118.15 29.8849 114.885 27.3099 111.13C25.5599 108.58 22.0749 104.045 18.3699 102.355C15.1949 100.905 11.8799 100.07 9.26494 100.07C8.71494 100.07 8.21494 100.11 7.77494 100.18C5.94494 100.47 4.43494 101.44 3.63494 102.85C2.99494 103.97 2.88994 105.265 3.33994 106.39C4.23494 108.63 7.54994 110.64 8.93494 111.4C10.6099 112.32 13.5299 115.12 15.2049 117.82C16.4599 119.84 17.0549 121.305 17.8099 123.155C18.2349 124.2 18.6999 125.34 19.3299 126.715C20.9849 130.31 26.0949 134.075 28.8549 135.73C32.6249 137.99 39.6249 138.62 43.4649 138.79L44.0199 138.8C45.5149 138.8 48.0199 138.575 51.4949 138.125V154.01C51.4949 157.905 46.5399 158.06 45.3249 158.06C45.1699 158.06 47.8399 158.98 47.8399 158.98C57.6549 162.2 68.1099 164 78.9999 164C89.8899 164 100.345 162.2 110.155 158.985C110.155 158.985 113.06 157.965 112.905 157.985Z" fill="black"/>
<path d="M142.72 60.6701C142.72 49.1201 138.81 39.5401 132.135 32.0301C132.86 30.4051 133.615 28.2251 133.99 25.4851C134.85 19.2351 133.835 15.4851 132.975 11.8151C132.115 8.14508 131.1 5.56508 131.1 5.56508C131.1 5.56508 126.49 5.09508 122.585 6.42508C118.68 7.75508 115.32 8.77008 110.475 11.6601C108.21 13.0101 105.93 14.4901 104.125 15.6901C96.4099 13.5501 87.9249 12.4501 78.9999 12.4501C69.9949 12.4501 61.4349 13.5551 53.6649 15.7101C51.8549 14.5051 49.5599 13.0151 47.2799 11.6551C42.4349 8.76509 39.0749 7.75009 35.1699 6.42009C31.2649 5.09009 26.6549 5.56009 26.6549 5.56009C26.6549 5.56009 25.6399 8.14009 24.7799 11.8101C23.9199 15.4801 22.9049 19.2301 23.7649 25.4801C24.1499 28.2901 24.9299 30.5101 25.6749 32.1451C19.1249 39.6101 15.2849 49.1301 15.2849 60.6651C15.2849 90.5801 31.4449 104.235 60.8899 107.84C57.4549 111.47 55.1499 116.12 54.3749 121.295C52.4399 122.145 50.2099 122.945 48.0649 123.265C42.5449 124.1 36.7099 123.265 33.8999 121.6C31.0899 119.935 27.7549 116.185 25.2549 112.535C23.1449 109.455 20.0999 105.88 17.3399 104.62C13.6949 102.955 10.1499 102.33 8.17494 102.64C6.19494 102.955 5.25994 104.41 5.67494 105.455C6.08994 106.495 8.06994 108.06 10.1549 109.205C12.2399 110.35 15.4699 113.475 17.3449 116.495C19.4349 119.865 19.8449 121.81 21.6149 125.66C22.8599 128.37 27.1199 131.755 30.1549 133.575C32.7599 135.14 37.9649 136.03 43.5949 136.285C45.5399 136.375 50.1349 135.805 54.0099 135.255V154.005C54.0099 157.2 51.0849 159.63 48.0549 159.07C57.7799 162.34 68.1649 164 78.9999 164C89.8299 164 100.215 162.34 109.95 159.08C106.925 159.635 104 157.205 104 154.01V124.99C104 118.345 101.365 112.34 97.135 107.865C126.365 104.355 142.72 91.0251 142.72 60.6701ZM15.1949 107.635C14.4249 107.24 14.0099 106.51 14.2699 105.995C14.5299 105.48 15.3699 105.385 16.1399 105.78C16.9099 106.175 17.3249 106.905 17.0649 107.42C16.8049 107.935 15.9649 108.03 15.1949 107.635ZM21.2549 111.41C20.8499 111.85 19.9799 111.71 19.3099 111.1C18.6399 110.49 18.4249 109.635 18.8299 109.195C19.2349 108.755 20.1049 108.895 20.7749 109.505C21.4449 110.115 21.6599 110.97 21.2549 111.41ZM25.0249 117.66C24.5149 118.02 23.6499 117.685 23.0949 116.91C22.5399 116.135 22.5049 115.21 23.0149 114.85C23.5249 114.49 24.3899 114.825 24.9449 115.6C25.4949 116.375 25.5349 117.3 25.0249 117.66ZM30.4399 122.365C30.0949 122.925 29.1149 122.95 28.2549 122.425C27.3949 121.9 26.9749 121.02 27.3199 120.46C27.6649 119.9 28.6449 119.875 29.5049 120.4C30.3649 120.925 30.7849 121.805 30.4399 122.365ZM35.5599 126.97C34.4949 126.84 33.7049 126.175 33.7949 125.485C33.8799 124.795 34.8149 124.345 35.8749 124.475C36.9399 124.605 37.7299 125.27 37.6399 125.96C37.5549 126.645 36.6249 127.1 35.5599 126.97ZM43.8149 128.165C42.6799 128.1 41.7949 127.45 41.8399 126.72C41.8849 125.99 42.8399 125.445 43.9749 125.51C45.1099 125.575 45.9949 126.225 45.9499 126.955C45.9049 127.69 44.9499 128.23 43.8149 128.165ZM51.6049 127.385C50.3949 127.385 49.4149 126.755 49.4149 125.98C49.4149 125.205 50.3949 124.575 51.6049 124.575C52.8149 124.575 53.7949 125.205 53.7949 125.98C53.7949 126.755 52.8099 127.385 51.6049 127.385Z" fill="white"/>
</svg>
