<svg width="340" height="380" viewBox="0 0 340 380" fill="none" xmlns="http://www.w3.org/2000/svg">
<path d="M0 0H340L300 340L170 380L30 340L0 0Z" fill="#E7A42B"/>
<path d="M306.3 30L272.5 317.1L170 348.6V30H306.3Z" fill="#F2BF22"/>
<path d="M170 160L180 180L170 200H77.8999L86.3999 70H170L180 90L170 110H130.3L127 160H170Z" fill="#FAF9F8"/>
<path d="M169 275.7L170 275.4L180 300L170 317.2L169.4 317.4L86.1 293.6L80.5 230H120.7L123.5 262.7L169 275.7Z" fill="#EBEBEB"/>
<path d="M260.7 160L245 294.2L170 317.2V275.4L208.3 263.6L215.7 200H170V160H260.7Z" fill="white"/>
<path d="M269.2 130H229.3L226.7 110H170V70H261.3L263 82.6L269.2 130Z" fill="white"/>
</svg>
