<svg width="336" height="416" viewBox="0 0 336 416" fill="none" xmlns="http://www.w3.org/2000/svg">
<path d="M112 240H224V256H112V240ZM128 272H208V288H128V272Z" fill="#7933FF"/>
<path d="M184 192H152C147.584 192 144 188.416 144 184V152C144 147.584 147.584 144 152 144H184C188.416 144 192 147.584 192 152V184C192 188.416 188.416 192 184 192Z" fill="url(#paint0_linear_51_23)"/>
<path d="M296 0H40C17.944 0 0 17.944 0 40V376C0 398.056 17.944 416 40 416H296C318.056 416 336 398.056 336 376V40C336 17.944 318.056 0 296 0ZM320 376C320 389.232 309.232 400 296 400H40C26.768 400 16 389.232 16 376V40C16 26.768 26.768 16 40 16H296C309.232 16 320 26.768 320 40V376Z" fill="url(#paint1_linear_51_23)"/>
<path d="M288 32H48C39.176 32 32 39.176 32 48V320C32 328.824 39.176 336 48 336H288C296.824 336 304 328.824 304 320V48C304 39.176 296.824 32 288 32ZM48 320V48H288L288.016 320H48Z" fill="url(#paint2_linear_51_23)"/>
<path d="M200 112H136C122.768 112 112 122.768 112 136V200C112 213.232 122.768 224 136 224H200C213.232 224 224 213.232 224 200V136C224 122.768 213.232 112 200 112ZM208 200C208 204.416 204.416 208 200 208H136C131.584 208 128 204.416 128 200V136C128 131.584 131.584 128 136 128H200C204.416 128 208 131.584 208 136V200Z" fill="url(#paint3_linear_51_23)"/>
<path d="M168 352C163.757 352 159.687 353.686 156.686 356.686C153.686 359.687 152 363.757 152 368C152 372.243 153.686 376.313 156.686 379.314C159.687 382.314 163.757 384 168 384C172.243 384 176.313 382.314 179.314 379.314C182.314 376.313 184 372.243 184 368C184 363.757 182.314 359.687 179.314 356.686C176.313 353.686 172.243 352 168 352Z" fill="url(#paint4_linear_51_23)"/>
<defs>
<linearGradient id="paint0_linear_51_23" x1="168" y1="143.336" x2="168" y2="194.944" gradientUnits="userSpaceOnUse">
<stop stop-color="#6DC7FF"/>
<stop offset="1" stop-color="#E6ABFF"/>
</linearGradient>
<linearGradient id="paint1_linear_51_23" x1="168" y1="-2" x2="168" y2="421.368" gradientUnits="userSpaceOnUse">
<stop stop-color="#1A6DFF"/>
<stop offset="1" stop-color="#C822FF"/>
</linearGradient>
<linearGradient id="paint2_linear_51_23" x1="168" y1="-2" x2="168" y2="421.368" gradientUnits="userSpaceOnUse">
<stop stop-color="#1A6DFF"/>
<stop offset="1" stop-color="#C822FF"/>
</linearGradient>
<linearGradient id="paint3_linear_51_23" x1="168" y1="-2" x2="168" y2="421.368" gradientUnits="userSpaceOnUse">
<stop stop-color="#1A6DFF"/>
<stop offset="1" stop-color="#C822FF"/>
</linearGradient>
<linearGradient id="paint4_linear_51_23" x1="168" y1="-2.00002" x2="168" y2="421.368" gradientUnits="userSpaceOnUse">
<stop stop-color="#1A6DFF"/>
<stop offset="1" stop-color="#C822FF"/>
</linearGradient>
</defs>
</svg>
