<svg width="464" height="336" viewBox="0 0 464 336" fill="none" xmlns="http://www.w3.org/2000/svg">
<path d="M96 112V72C96 67.584 99.584 64 104 64H144L96 112Z" fill="url(#paint0_linear_51_25)"/>
<path d="M448 272H432V40C432 17.944 414.056 0 392 0H72C49.944 0 32 17.944 32 40V272H16C7.176 272 0 279.176 0 288V296C0 318.056 17.944 336 40 336H424C446.056 336 464 318.056 464 296V288C464 279.176 456.824 272 448 272ZM48 40C48 26.768 58.768 16 72 16H392C405.232 16 416 26.768 416 40V272H292.944C286.824 272 281.344 275.4 278.64 280.84L275.056 288L188.936 287.984L185.376 280.864C182.656 275.4 177.168 272 171.056 272H48V40ZM448 296C448 309.232 437.232 320 424 320H40C26.768 320 16 309.232 16 296V288L171.064 288.016L174.624 295.136C177.344 300.608 182.824 304 188.944 304H275.056C281.176 304 286.656 300.6 289.36 295.16L292.944 288H448V296Z" fill="url(#paint1_linear_51_25)"/>
<path d="M400 56C400 42.768 389.232 32 376 32H88C74.768 32 64 42.768 64 56V256H400V56ZM384 240H80V56C80 51.584 83.584 48 88 48H376C380.416 48 384 51.584 384 56V240Z" fill="url(#paint2_linear_51_25)"/>
<path d="M280 88H184C175.176 88 168 95.176 168 104V184C168 192.824 175.176 200 184 200H280C288.824 200 296 192.824 296 184V104C296 95.176 288.824 88 280 88ZM280 184H184V104H280V184Z" fill="url(#paint3_linear_51_25)"/>
<path d="M200 120H264V136H200V120Z" fill="url(#paint4_linear_51_25)"/>
<path d="M200 152H264V168H200V152Z" fill="url(#paint5_linear_51_25)"/>
<defs>
<linearGradient id="paint0_linear_51_25" x1="120" y1="59.336" x2="120" y2="110.68" gradientUnits="userSpaceOnUse">
<stop stop-color="#6DC7FF"/>
<stop offset="1" stop-color="#E6ABFF"/>
</linearGradient>
<linearGradient id="paint1_linear_51_25" x1="232" y1="-6.664" x2="232" y2="342.92" gradientUnits="userSpaceOnUse">
<stop stop-color="#1A6DFF"/>
<stop offset="1" stop-color="#C822FF"/>
</linearGradient>
<linearGradient id="paint2_linear_51_25" x1="232" y1="-6.664" x2="232" y2="342.92" gradientUnits="userSpaceOnUse">
<stop stop-color="#1A6DFF"/>
<stop offset="1" stop-color="#C822FF"/>
</linearGradient>
<linearGradient id="paint3_linear_51_25" x1="232" y1="-6.664" x2="232" y2="342.92" gradientUnits="userSpaceOnUse">
<stop stop-color="#1A6DFF"/>
<stop offset="1" stop-color="#C822FF"/>
</linearGradient>
<linearGradient id="paint4_linear_51_25" x1="232" y1="-6.66399" x2="232" y2="342.92" gradientUnits="userSpaceOnUse">
<stop stop-color="#1A6DFF"/>
<stop offset="1" stop-color="#C822FF"/>
</linearGradient>
<linearGradient id="paint5_linear_51_25" x1="232" y1="-6.664" x2="232" y2="342.92" gradientUnits="userSpaceOnUse">
<stop stop-color="#1A6DFF"/>
<stop offset="1" stop-color="#C822FF"/>
</linearGradient>
</defs>
</svg>
