<svg width="21" height="20" viewBox="0 0 21 20" fill="none" xmlns="http://www.w3.org/2000/svg">
<path d="M6.35043 12.8307L6.88126 13.3636C6.88126 13.3636 8.14475 14.6295 11.5922 11.173C15.0397 7.71651 13.7762 6.45062 13.7762 6.45062L13.4426 6.11414C12.6177 5.28825 12.5396 3.96119 13.2594 2.99177L14.7294 1.01175C15.6207 -0.188261 17.3415 -0.347086 18.3624 0.676452L20.194 2.51176C20.6992 3.02 21.0375 3.67648 20.9967 4.40589C20.8917 6.27297 20.054 10.2883 15.3827 14.973C10.4279 19.9401 5.77877 20.1378 3.87828 19.959C3.27629 19.9025 2.75362 19.5943 2.33246 19.1707L0.675802 17.5095C-0.44419 16.3883 -0.129192 14.4648 1.30346 13.6801L3.53178 12.4577C4.47211 11.9436 5.61544 12.0942 6.35043 12.8307Z" fill="white"/>
</svg>
