<svg width="416" height="376" viewBox="0 0 416 376" fill="none" xmlns="http://www.w3.org/2000/svg">
<path d="M208 235.704C234.51 235.704 256 214.213 256 187.704C256 161.194 234.51 139.704 208 139.704C181.49 139.704 160 161.194 160 187.704C160 214.213 181.49 235.704 208 235.704Z" fill="url(#paint0_linear_48_66)"/>
<path d="M416 187.704C416 157.64 382.056 131.568 329.176 115.768C330.944 107.52 332.432 99.4076 333.368 91.6476C338.624 47.7836 329.504 17.0636 307.68 5.14355C285.848 -6.76845 255.088 2.16755 221.032 30.3116C216.68 33.9036 212.336 37.8155 208 41.9115C203.664 37.8075 199.32 33.9036 194.968 30.3116C160.912 2.16755 130.136 -6.76045 108.32 5.14355C86.496 17.0556 77.376 47.7756 82.632 91.6476C83.56 99.4156 85.056 107.52 86.824 115.768C33.944 131.568 0 157.64 0 187.704C0 217.768 33.944 243.84 86.824 259.64C85.056 267.888 83.568 276 82.632 283.76C77.376 327.624 86.496 358.344 108.32 370.264C114.632 373.712 121.68 375.408 129.344 375.408C148.2 375.408 170.76 365.112 194.968 345.104C199.32 341.512 203.664 337.6 208 333.504C212.336 337.608 216.68 341.512 221.032 345.104C245.24 365.112 267.8 375.408 286.656 375.408C294.32 375.408 301.376 373.704 307.68 370.264C329.504 358.352 338.624 327.632 333.368 283.76C332.44 275.992 330.944 267.888 329.176 259.64C382.056 243.84 416 217.768 416 187.704ZM231.216 42.6315C259.456 19.2955 284.536 10.7356 300.008 19.1836C315.48 27.6236 321.84 53.3436 317.48 89.7276C316.64 96.7596 315.296 104.096 313.728 111.56C296.792 107.408 278.288 104.24 258.592 102.232C246.08 84.0316 232.872 67.4235 219.328 53.1755C223.28 49.4475 227.248 45.9115 231.216 42.6315ZM271.192 222.208C264.368 234.704 257.112 246.648 249.576 258C236.368 259.104 222.488 259.704 208 259.704C193.512 259.704 179.632 259.104 166.416 258C158.888 246.64 151.624 234.704 144.8 222.208C138.528 210.728 132.808 199.184 127.664 187.704C132.808 176.232 138.528 164.688 144.8 153.2C151.624 140.704 158.88 128.76 166.416 117.408C179.632 116.304 193.512 115.704 208 115.704C222.488 115.704 236.368 116.304 249.584 117.408C257.112 128.768 264.376 140.704 271.2 153.2C277.472 164.68 283.192 176.224 288.336 187.704C283.192 199.176 277.464 210.72 271.192 222.208ZM296.624 207.6C302.064 221.512 306.528 235.152 310.032 248.368C297.68 251.376 284.352 253.92 269.96 255.8C275.216 247.4 280.36 238.808 285.232 229.872C289.288 222.472 293.032 215.032 296.624 207.6ZM208 310.928C197.824 300.2 187.824 288.024 178.168 274.824C187.896 275.392 197.84 275.704 208 275.704C218.16 275.704 228.104 275.392 237.832 274.824C228.176 288.024 218.176 300.2 208 310.928ZM146.032 255.8C131.64 253.92 118.312 251.376 105.96 248.368C109.464 235.152 113.928 221.504 119.368 207.6C122.968 215.04 126.712 222.472 130.752 229.88C135.632 238.808 140.776 247.4 146.032 255.8ZM119.376 167.808C113.936 153.896 109.472 140.248 105.968 127.04C118.32 124.032 131.648 121.488 146.04 119.608C140.784 128.008 135.64 136.6 130.768 145.536C126.712 152.936 122.968 160.376 119.376 167.808ZM208 64.4796C218.176 75.2076 228.176 87.3836 237.832 100.584C228.104 100.016 218.16 99.7036 208 99.7036C197.84 99.7036 187.896 100.016 178.168 100.584C187.824 87.3836 197.824 75.2076 208 64.4796ZM285.24 145.536C280.368 136.608 275.224 128.016 269.968 119.608C284.36 121.488 297.688 124.032 310.04 127.04C306.536 140.256 302.072 153.904 296.632 167.808C293.032 160.376 289.288 152.936 285.24 145.536ZM98.52 89.7355C94.152 53.3436 100.52 27.6235 115.992 19.1915C119.896 17.0555 124.416 16.0155 129.44 16.0155C144.32 16.0155 163.664 25.1915 184.784 42.6395C188.752 45.9195 192.728 49.4555 196.688 53.1915C183.144 67.4395 169.928 84.0396 157.424 102.248C137.72 104.256 119.216 107.432 102.288 111.576C100.704 104.104 99.368 96.7675 98.52 89.7355ZM16 187.704C16 166.904 43.76 145.28 90.536 131.224C95.384 149.456 102.032 168.456 110.304 187.704C102.032 206.96 95.384 225.96 90.536 244.184C43.76 230.128 16 208.504 16 187.704ZM184.784 332.776C156.544 356.112 131.488 364.688 115.992 356.224C100.52 347.784 94.16 322.064 98.52 285.68C99.36 278.648 100.704 271.312 102.272 263.848C119.208 268 137.712 271.168 157.408 273.176C169.92 291.376 183.128 307.984 196.672 322.232C192.72 325.96 188.752 329.496 184.784 332.776ZM317.48 285.672C321.848 322.064 315.48 347.784 300.008 356.216C284.536 364.688 259.464 356.104 231.216 332.768C227.248 329.488 223.272 325.952 219.312 322.216C232.856 307.968 246.072 291.368 258.576 273.16C278.28 271.152 296.784 267.976 313.712 263.832C315.296 271.304 316.632 278.64 317.48 285.672ZM325.464 244.184C320.616 225.952 313.968 206.952 305.696 187.704C313.968 168.448 320.616 149.448 325.464 131.224C372.24 145.28 400 166.904 400 187.704C400 208.504 372.24 230.128 325.464 244.184Z" fill="url(#paint1_linear_48_66)"/>
<defs>
<linearGradient id="paint0_linear_48_66" x1="208" y1="133.408" x2="208" y2="225.48" gradientUnits="userSpaceOnUse">
<stop stop-color="#6DC7FF"/>
<stop offset="1" stop-color="#E6ABFF"/>
</linearGradient>
<linearGradient id="paint1_linear_48_66" x1="208" y1="-8.88845" x2="208" y2="359.224" gradientUnits="userSpaceOnUse">
<stop stop-color="#1A6DFF"/>
<stop offset="1" stop-color="#C822FF"/>
</linearGradient>
</defs>
</svg>
