<svg width="416" height="464" viewBox="0 0 416 464" fill="none" xmlns="http://www.w3.org/2000/svg">
<path d="M358.72 375.36C354.72 379.28 352.96 384.88 353.84 390.48L363.44 446.72C363.44 446.96 363.52 447.36 363.04 447.76C362.48 448.16 362.08 447.92 361.92 447.84L315.04 422.96C311.6 421.12 307.76 420.24 304 420.24C300.24 420.24 296.4 421.12 292.96 422.96L246.08 447.84C245.92 447.92 245.52 448.16 244.96 447.76C244.48 447.36 244.56 446.88 244.56 446.72L254.16 390.4C255.04 384.88 253.28 379.28 249.36 375.36L208.32 335.04C208.24 334.88 207.84 334.56 208.08 333.92C208.24 333.28 208.72 333.2 208.88 333.2L265.36 324.96C270.96 324.08 275.76 320.64 278.16 315.52L303.04 264.72C303.2 264.4 303.44 264 304 264C304.56 264 304.8 264.4 304.96 264.72L329.84 315.52C332.24 320.64 337.04 324.16 342.64 324.96L399.12 333.2C399.28 333.28 399.76 333.36 399.92 333.92C400.16 334.56 399.76 334.96 399.68 335.04L358.72 375.36Z" fill="url(#paint0_linear_76_61)"/>
<path d="M232 8V80C232 84.416 235.584 88 240 88H312L232 8Z" fill="url(#paint1_linear_76_61)"/>
<path d="M312.96 77.68L242.32 7.04C237.84 2.48 231.76 0 225.36 0H24C10.8 0 0 10.8 0 24V392C0 405.2 10.8 416 24 416H217.2L219.92 400H24C19.6 400 16 396.4 16 392V382.48C18.48 383.44 21.2 384 24 384H212.4L196.08 368H24C19.6 368 16 364.4 16 360V24C16 19.6 19.6 16 24 16H224V72C224 85.2 234.8 96 248 96H304V232C309.68 232 315.2 233.44 320 236.16V94.64C320 88.24 317.52 82.16 312.96 77.68ZM248 80C243.6 80 240 76.4 240 72V27.28L292.72 80H248Z" fill="url(#paint2_linear_76_61)"/>
<path d="M362.856 464C360.184 464 357.496 463.352 355.024 462.04L304 435.04L252.976 462.04C247.312 465.048 240.536 464.576 235.336 460.8C230.104 457.008 227.528 450.688 228.624 444.304L238.376 387.048L197.056 346.512C192.456 342 190.848 335.376 192.848 329.24C194.84 323.12 200.016 318.744 206.36 317.816L263.424 309.472L288.952 257.4C291.8 251.6 297.56 248 304 248C310.44 248 316.2 251.6 319.048 257.4L344.576 309.472L401.632 317.816C407.984 318.744 413.16 323.12 415.152 329.24C417.152 335.384 415.544 342 410.944 346.512L369.624 387.048L379.376 444.312C380.472 450.688 377.896 457.008 372.664 460.8C369.736 462.92 366.304 464 362.856 464ZM304 417.984C305.288 417.984 306.568 418.296 307.744 418.912L362.512 447.896C363.696 447.536 363.64 447.176 363.616 447.008L353.16 385.608C352.712 383.024 353.568 380.392 355.44 378.552L399.744 335.08C399.856 334.968 400.12 334.712 399.944 334.192C399.784 333.704 399.48 333.664 399.312 333.64L338.096 324.688C335.488 324.304 333.232 322.664 332.072 320.296L304.688 264.448C304.52 264.12 303.488 264.12 303.312 264.448L275.928 320.296C274.768 322.664 272.512 324.304 269.904 324.688L208.68 333.64C208.512 333.664 208.208 333.712 208.056 334.192C207.888 334.712 208.152 334.976 208.256 335.08L252.56 378.552C254.432 380.384 255.288 383.024 254.84 385.608L244.384 447C244.36 447.176 244.296 447.536 244.72 447.84L300.248 418.912C301.432 418.296 302.712 417.984 304 417.984Z" fill="url(#paint3_linear_76_61)"/>
<path d="M112 136V152C112 156.416 115.584 160 120 160H176V192H120C115.584 192 112 195.584 112 200V216C112 220.416 115.584 224 120 224H176V256H120C115.584 256 112 259.584 112 264V280C112 284.416 115.584 288 120 288H176C193.672 288 208 273.672 208 256V160C208 142.328 193.672 128 176 128H120C115.584 128 112 131.584 112 136Z" fill="url(#paint4_linear_76_61)"/>
<defs>
<linearGradient id="paint0_linear_76_61" x1="304" y1="264" x2="304" y2="447.984" gradientUnits="userSpaceOnUse">
<stop stop-color="#6DC7FF"/>
<stop offset="1" stop-color="#E6ABFF"/>
</linearGradient>
<linearGradient id="paint1_linear_76_61" x1="272" y1="8" x2="272" y2="88" gradientUnits="userSpaceOnUse">
<stop stop-color="#6DC7FF"/>
<stop offset="1" stop-color="#E6ABFF"/>
</linearGradient>
<linearGradient id="paint2_linear_76_61" x1="160" y1="-8" x2="160" y2="432.096" gradientUnits="userSpaceOnUse">
<stop stop-color="#1A6DFF"/>
<stop offset="1" stop-color="#C822FF"/>
</linearGradient>
<linearGradient id="paint3_linear_76_61" x1="304.48" y1="-0.0319879" x2="303.816" y2="461.304" gradientUnits="userSpaceOnUse">
<stop stop-color="#1A6DFF"/>
<stop offset="1" stop-color="#C822FF"/>
</linearGradient>
<linearGradient id="paint4_linear_76_61" x1="160" y1="132" x2="160" y2="281.528" gradientUnits="userSpaceOnUse">
<stop stop-color="#6DC7FF"/>
<stop offset="1" stop-color="#E6ABFF"/>
</linearGradient>
</defs>
</svg>
