<?xml version="1.0" encoding="utf-8"?>
<svg xmlns="http://www.w3.org/2000/svg" viewBox="0 0 100 100" width="400" height="400">
  <path fill="#fefdef" d="M77.575,84.268h-54c-3.85,0-7-3.15-7-7v-54c0-3.85,3.15-7,7-7h54c3.85,0,7,3.15,7,7v54C84.575,81.118,81.425,84.268,77.575,84.268z" />
  <path fill="#1f212b" d="M77.575,85.268h-54c-4.411,0-8-3.589-8-8v-54c0-4.411,3.589-8,8-8h54c4.411,0,8,3.589,8,8v54C85.575,81.679,81.986,85.268,77.575,85.268z M23.575,17.268c-3.309,0-6,2.691-6,6v54c0,3.309,2.691,6,6,6h54c3.309,0,6-2.691,6-6v-54c0-3.309-2.691-6-6-6H23.575z" />
  <path fill="#a3a3cd" d="M17.575 27.268H47.575V77.268H17.575z" />
  <path fill="#1f212b" d="M71.075 27.268h-6c-.276 0-.5-.224-.5-.5s.224-.5.5-.5h6c.276 0 .5.224.5.5S71.351 27.268 71.075 27.268zM62.075 27.268h-44c-.276 0-.5-.224-.5-.5s.224-.5.5-.5h44c.276 0 .5.224.5.5S62.351 27.268 62.075 27.268zM85.075 27.268h-9c-.276 0-.5-.224-.5-.5s.224-.5.5-.5h9c.276 0 .5.224.5.5S85.351 27.268 85.075 27.268zM84.075 77.268h-55c-.276 0-.5-.224-.5-.5s.224-.5.5-.5h55c.276 0 .5.224.5.5S84.351 77.268 84.075 77.268zM26.075 77.268h-9c-.276 0-.5-.224-.5-.5s.224-.5.5-.5h9c.276 0 .5.224.5.5S26.351 77.268 26.075 77.268z" />
  <path fill="#ef5390" d="M25.075 19.768A2 2 0 1 0 25.075 23.768A2 2 0 1 0 25.075 19.768Z" />
  <path fill="#1f212b" d="M25.075,24.268c-1.379,0-2.5-1.121-2.5-2.5s1.121-2.5,2.5-2.5s2.5,1.121,2.5,2.5S26.454,24.268,25.075,24.268z M25.075,20.268c-0.827,0-1.5,0.673-1.5,1.5s0.673,1.5,1.5,1.5s1.5-0.673,1.5-1.5S25.902,20.268,25.075,20.268z" />
  <path fill="#f9e65c" d="M32.075 19.768A2 2 0 1 0 32.075 23.768A2 2 0 1 0 32.075 19.768Z" />
  <path fill="#1f212b" d="M32.075,24.268c-1.379,0-2.5-1.121-2.5-2.5s1.121-2.5,2.5-2.5s2.5,1.121,2.5,2.5S33.454,24.268,32.075,24.268z M32.075,20.268c-0.827,0-1.5,0.673-1.5,1.5s0.673,1.5,1.5,1.5s1.5-0.673,1.5-1.5S32.902,20.268,32.075,20.268z" />
  <path fill="#60be92" d="M39.075 19.768A2 2 0 1 0 39.075 23.768A2 2 0 1 0 39.075 19.768Z" />
  <path fill="#1f212b" d="M39.075 24.268c-1.379 0-2.5-1.121-2.5-2.5s1.121-2.5 2.5-2.5 2.5 1.121 2.5 2.5S40.454 24.268 39.075 24.268zM39.075 20.268c-.827 0-1.5.673-1.5 1.5s.673 1.5 1.5 1.5 1.5-.673 1.5-1.5S39.902 20.268 39.075 20.268zM23.075 74.268c-.276 0-.5-.224-.5-.5v-44c0-.276.224-.5.5-.5s.5.224.5.5v44C23.575 74.044 23.351 74.268 23.075 74.268zM20.075 32.268c-.273 0-.497-.22-.5-.494-.003-.276.218-.503.494-.506l1-.012c.002 0 .004 0 .006 0 .273 0 .497.22.5.494.003.276-.218.503-.494.506l-1 .012C20.079 32.268 20.077 32.268 20.075 32.268zM20.075 35.268c-.273 0-.497-.22-.5-.494-.003-.276.218-.503.494-.506l1-.012c.296-.03.502.218.506.494.003.276-.218.503-.494.506l-1 .012C20.079 35.268 20.077 35.268 20.075 35.268zM20.075 38.268c-.273 0-.497-.22-.5-.494-.003-.276.218-.503.494-.506l1-.012c.296-.001.502.217.506.494.003.276-.218.503-.494.506l-1 .012C20.079 38.268 20.077 38.268 20.075 38.268zM20.075 41.268c-.273 0-.497-.22-.5-.494-.003-.276.218-.503.494-.506l1-.012c.296.028.502.218.506.494.003.276-.218.503-.494.506l-1 .012C20.079 41.268 20.077 41.268 20.075 41.268zM20.075 44.268c-.273 0-.497-.22-.5-.494-.003-.276.218-.503.494-.506l1-.012c.002 0 .004 0 .006 0 .273 0 .497.22.5.494.003.276-.218.503-.494.506l-1 .012C20.079 44.268 20.077 44.268 20.075 44.268zM20.075 47.268c-.273 0-.497-.221-.5-.495-.003-.275.219-.502.495-.505l1-.011c.001 0 .003 0 .005 0 .273 0 .497.221.5.495.003.275-.219.502-.495.505l-1 .011C20.079 47.268 20.077 47.268 20.075 47.268zM20.075 50.268c-.273 0-.497-.221-.5-.495-.003-.275.219-.502.495-.505l1-.011c.001 0 .003 0 .005 0 .273 0 .497.221.5.495.003.275-.219.502-.495.505l-1 .011C20.079 50.268 20.077 50.268 20.075 50.268zM20.075 53.268c-.273 0-.497-.221-.5-.495-.003-.275.219-.502.495-.505l1-.011c.001 0 .003 0 .005 0 .273 0 .497.221.5.495.003.275-.219.502-.495.505l-1 .011C20.079 53.268 20.077 53.268 20.075 53.268zM20.075 56.268c-.273 0-.497-.221-.5-.495-.003-.275.219-.502.495-.505l1-.011c.001 0 .003 0 .005 0 .273 0 .497.221.5.495.003.275-.219.502-.495.505l-1 .011C20.079 56.268 20.077 56.268 20.075 56.268zM20.075 59.268c-.273 0-.497-.221-.5-.495-.003-.275.219-.502.495-.505l1-.011c.001 0 .003 0 .005 0 .273 0 .497.221.5.495.003.275-.219.502-.495.505l-1 .011C20.079 59.268 20.077 59.268 20.075 59.268zM20.075 62.268c-.273 0-.497-.221-.5-.495-.003-.275.219-.502.495-.505l1-.011c.001 0 .003 0 .005 0 .273 0 .497.221.5.495.003.275-.219.502-.495.505l-1 .011C20.079 62.268 20.077 62.268 20.075 62.268zM20.075 65.268c-.273 0-.497-.221-.5-.495-.003-.275.219-.502.495-.505l1-.011c.001 0 .003 0 .005 0 .273 0 .497.221.5.495.003.275-.219.502-.495.505l-1 .011C20.079 65.268 20.077 65.268 20.075 65.268zM20.075 68.268c-.273 0-.497-.221-.5-.495-.003-.275.219-.502.495-.505l1-.011c.001 0 .003 0 .005 0 .273 0 .497.221.5.495.003.275-.219.502-.495.505l-1 .011C20.079 68.268 20.077 68.268 20.075 68.268zM20.075 71.268c-.273 0-.497-.221-.5-.495-.003-.275.219-.502.495-.505l1-.011c.001 0 .003 0 .005 0 .273 0 .497.221.5.495.003.275-.219.502-.495.505l-1 .011C20.079 71.268 20.077 71.268 20.075 71.268zM48.075 73.268c-.276 0-.5-.224-.5-.5v-43c0-.276.224-.5.5-.5s.5.224.5.5v43C48.575 73.044 48.351 73.268 48.075 73.268z" />
  <path fill="#fef6aa" d="M52.074 36.768H71.074V48.768H52.074z" />
  <path fill="#1f212b" d="M71.075,49.268h-19c-0.276,0-0.5-0.224-0.5-0.5v-12c0-0.276,0.224-0.5,0.5-0.5h19c0.276,0,0.5,0.224,0.5,0.5v12C71.575,49.044,71.351,49.268,71.075,49.268z M52.575,48.268h18v-11h-18V48.268z" />
  <path fill="#1f212b" d="M52.63 48.672c-.167 0-.331-.085-.426-.238-.145-.235-.071-.543.164-.688l17.754-10.924c.231-.146.541-.072.688.164.145.235.071.543-.164.688L52.892 48.598C52.811 48.649 52.72 48.672 52.63 48.672zM70.626 48.851c-.079 0-.159-.019-.234-.059l-6.978-3.702c-.244-.129-.337-.432-.207-.676.13-.243.431-.338.676-.207l6.978 3.702c.244.129.337.432.207.676C70.977 48.754 70.804 48.851 70.626 48.851z" />
  <path fill="#1f212b" d="M61.077,43.508c-0.098,0-0.196-0.028-0.282-0.087l-8.752-5.986c-0.228-0.156-0.286-0.468-0.131-0.695c0.158-0.228,0.471-0.284,0.695-0.131l8.752,5.986c0.228,0.156,0.286,0.468,0.131,0.695C61.392,43.432,61.236,43.508,61.077,43.508z" />
  <path fill="#fef6aa" d="M61.074 55.768H80.074V67.768H61.074z" />
  <path fill="#1f212b" d="M80.075,68.268h-19c-0.276,0-0.5-0.224-0.5-0.5v-12c0-0.276,0.224-0.5,0.5-0.5h19c0.276,0,0.5,0.224,0.5,0.5v12C80.575,68.044,80.351,68.268,80.075,68.268z M61.575,67.268h18v-11h-18V67.268z" />
  <path fill="#fef6aa" d="M61.575 67.206L79.384 56.588" />
  <path fill="#1f212b" d="M61.575,67.705c-0.17,0-0.336-0.087-0.43-0.244c-0.142-0.237-0.063-0.544,0.174-0.686l17.81-10.617c0.234-0.141,0.543-0.065,0.686,0.174c0.142,0.237,0.063,0.544-0.174,0.686l-17.81,10.617C61.751,67.683,61.663,67.705,61.575,67.705z" />
  <path fill="#fef6aa" d="M72.648 63.758L80.074 67.455" />
  <path fill="#1f212b" d="M80.075,67.955c-0.075,0-0.151-0.017-0.223-0.053l-7.427-3.697c-0.247-0.123-0.348-0.423-0.225-0.67c0.122-0.248,0.425-0.35,0.67-0.225l7.427,3.697c0.247,0.123,0.348,0.423,0.225,0.67C80.435,67.854,80.258,67.955,80.075,67.955z" />
  <path fill="#fef6aa" d="M61.077 56.368L70.076 62.168" />
  <path fill="#1f212b" d="M70.077,62.668c-0.093,0-0.188-0.025-0.271-0.08l-9-5.8c-0.232-0.149-0.3-0.459-0.149-0.69c0.149-0.232,0.461-0.3,0.69-0.149l9,5.8c0.232,0.149,0.3,0.459,0.149,0.69C70.401,62.587,70.241,62.668,70.077,62.668z" />
  <g>
    <path fill="#1f212b" d="M58.075 56.268h-6c-.276 0-.5-.224-.5-.5s.224-.5.5-.5h6c.276 0 .5.224.5.5S58.351 56.268 58.075 56.268zM58.075 59.268h-6c-.276 0-.5-.224-.5-.5s.224-.5.5-.5h6c.276 0 .5.224.5.5S58.351 59.268 58.075 59.268zM58.075 62.268h-6c-.276 0-.5-.224-.5-.5s.224-.5.5-.5h6c.276 0 .5.224.5.5S58.351 62.268 58.075 62.268zM58.075 65.268h-6c-.276 0-.5-.224-.5-.5s.224-.5.5-.5h6c.276 0 .5.224.5.5S58.351 65.268 58.075 65.268zM58.074 68.268h-6c-.276 0-.5-.224-.5-.5s.224-.5.5-.5h6c.276 0 .5.224.5.5S58.35 68.268 58.074 68.268z" />
  </g>
  <g>
    <path fill="#1f212b" d="M79.075 37.268h-6c-.276 0-.5-.224-.5-.5s.224-.5.5-.5h6c.276 0 .5.224.5.5S79.351 37.268 79.075 37.268zM79.075 40.268h-6c-.276 0-.5-.224-.5-.5s.224-.5.5-.5h6c.276 0 .5.224.5.5S79.351 40.268 79.075 40.268zM79.075 43.268h-6c-.276 0-.5-.224-.5-.5s.224-.5.5-.5h6c.276 0 .5.224.5.5S79.351 43.268 79.075 43.268zM79.075 46.268h-6c-.276 0-.5-.224-.5-.5s.224-.5.5-.5h6c.276 0 .5.224.5.5S79.351 46.268 79.075 46.268zM79.076 49.268h-6c-.276 0-.5-.224-.5-.5s.224-.5.5-.5h6c.276 0 .5.224.5.5S79.352 49.268 79.076 49.268z" />
  </g>
  <g>
    <path fill="#1f212b" d="M30.084 39.668c.036.079.067.154.093.225.026.071.038.142.038.213 0 .15-.048.276-.143.378-.096.102-.22.152-.374.152-.103 0-.202-.022-.297-.066-.169-.142-.351-.303-.545-.484-.194-.181-.395-.364-.6-.55-.257-.23-.519-.464-.787-.703-.268-.238-.505-.446-.71-.623-.125-.15-.187-.296-.187-.438 0-.186.084-.354.253-.504h-.011c.029-.026.11-.102.242-.226s.286-.27.462-.438c.176-.168.365-.347.566-.537.202-.189.391-.369.566-.537.177-.168.328-.312.457-.431.128-.119.211-.192.247-.219.118-.053.216-.08.297-.08.154 0 .279.054.374.159.095.106.143.234.143.385 0 .177-.044.323-.132.438-.125.124-.286.278-.484.464-.199.187-.4.372-.605.558-.19.177-.378.352-.561.523-.184.173-.334.316-.451.431l2.123 1.896L30.084 39.668zM38.149 32.014c.139-.247.308-.371.506-.371.139 0 .26.053.363.159s.154.248.154.425c0 .079-.011.15-.032.212l-2.102 5.887c-.19.531-.385 1.07-.583 1.618-.199.548-.393 1.087-.583 1.617-.074.124-.156.21-.247.259-.092.049-.178.073-.259.073-.139 0-.259-.051-.357-.152-.099-.102-.148-.25-.148-.444 0-.071.003-.128.011-.173l2.091-5.82c.191-.539.389-1.09.594-1.651C37.76 33.09 37.958 32.544 38.149 32.014zM42.418 37.758l-1.002-.954c-.198-.186-.398-.374-.6-.563-.202-.19-.361-.347-.478-.471-.096-.124-.143-.266-.143-.425 0-.15.049-.278.149-.385.099-.105.221-.159.368-.159.081 0 .177.022.286.066.045.027.151.12.319.278.169.159.363.341.583.544.22.204.446.418.677.644.231.226.431.417.6.576l.385.358h-.011c.161.159.241.327.241.504 0 .142-.055.283-.165.424l-1.299 1.167-1.353 1.193c-.103.054-.205.08-.308.08-.147 0-.27-.051-.369-.152-.099-.102-.148-.228-.148-.378 0-.133.044-.274.132-.425L42.418 37.758z" />
  </g>
</svg>