<svg width="70" height="31" viewBox="0 0 70 31" fill="none" xmlns="http://www.w3.org/2000/svg">
<rect x="3" width="67" height="28" rx="5" fill="#D9D9D9"/>
<path d="M3 23.5L8 28L0 30.5L3 23.5Z" fill="#D9D9D9"/>
<path d="M25.312 16.664C25.312 16.48 25.328 16.264 25.36 16.016C25.392 15.768 25.452 15.488 25.54 15.176C25.628 14.856 25.76 14.5 25.936 14.108L27.412 14.624C27.324 14.872 27.248 15.1 27.184 15.308C27.12 15.508 27.072 15.696 27.04 15.872C27.008 16.04 26.992 16.208 26.992 16.376C26.992 16.64 27.048 16.876 27.16 17.084C27.28 17.3 27.452 17.48 27.676 17.624C27.9 17.776 28.172 17.892 28.492 17.972C28.82 18.052 29.196 18.092 29.62 18.092C30.06 18.092 30.452 18.072 30.796 18.032C31.148 17.992 31.444 17.932 31.684 17.852C31.932 17.772 32.12 17.668 32.248 17.54C32.376 17.42 32.44 17.28 32.44 17.12C32.44 17.048 32.412 16.98 32.356 16.916C32.308 16.852 32.224 16.784 32.104 16.712C31.992 16.64 31.84 16.564 31.648 16.484C31.464 16.404 31.24 16.316 30.976 16.22L31.372 14.528C31.716 14.672 32.04 14.8 32.344 14.912C32.656 15.016 32.952 15.104 33.232 15.176C33.512 15.24 33.776 15.292 34.024 15.332C34.272 15.364 34.504 15.38 34.72 15.38C35.024 15.38 35.24 15.46 35.368 15.62C35.496 15.772 35.56 15.964 35.56 16.196C35.56 16.444 35.476 16.652 35.308 16.82C35.14 16.98 34.904 17.06 34.6 17.06C34.536 17.06 34.472 17.06 34.408 17.06C34.352 17.06 34.292 17.06 34.228 17.06C34.172 17.06 34.112 17.06 34.048 17.06C34.064 17.14 34.072 17.208 34.072 17.264C34.072 17.328 34.072 17.388 34.072 17.444C34.072 17.708 33.98 17.976 33.796 18.248C33.62 18.52 33.344 18.772 32.968 19.004C32.592 19.236 32.112 19.42 31.528 19.556C30.952 19.7 30.264 19.772 29.464 19.772C28.6 19.772 27.856 19.66 27.232 19.436C26.616 19.22 26.14 18.88 25.804 18.416C25.476 17.96 25.312 17.376 25.312 16.664ZM34.5977 17.06L34.7177 15.38C35.0057 15.38 35.2537 15.352 35.4617 15.296C35.6697 15.24 35.8457 15.128 35.9897 14.96C36.1337 14.784 36.2537 14.528 36.3497 14.192C36.4537 13.856 36.5457 13.408 36.6257 12.848L38.1977 13.112C38.1817 13.232 38.1577 13.372 38.1257 13.532C38.1017 13.692 38.0777 13.856 38.0537 14.024C38.0377 14.184 38.0297 14.336 38.0297 14.48C38.0297 14.624 38.0577 14.752 38.1137 14.864C38.1697 14.976 38.2577 15.072 38.3777 15.152C38.5057 15.224 38.6697 15.28 38.8697 15.32C39.0777 15.36 39.3297 15.38 39.6257 15.38C39.9297 15.38 40.1457 15.46 40.2737 15.62C40.4017 15.772 40.4657 15.964 40.4657 16.196C40.4657 16.444 40.3817 16.652 40.2137 16.82C40.0537 16.98 39.8177 17.06 39.5057 17.06C39.1457 17.06 38.8177 17.032 38.5217 16.976C38.2337 16.92 37.9817 16.828 37.7657 16.7C37.5577 16.564 37.3857 16.388 37.2497 16.172C37.1217 15.948 37.0417 15.676 37.0097 15.356H37.5857C37.4417 15.74 37.2577 16.048 37.0337 16.28C36.8177 16.504 36.5737 16.672 36.3017 16.784C36.0297 16.896 35.7457 16.968 35.4497 17C35.1617 17.04 34.8777 17.06 34.5977 17.06ZM36.7937 21.056C36.5937 21.056 36.4257 20.988 36.2897 20.852C36.1617 20.716 36.0977 20.552 36.0977 20.36C36.0977 20.16 36.1617 19.988 36.2897 19.844C36.4257 19.7 36.5937 19.628 36.7937 19.628C36.9857 19.628 37.1497 19.7 37.2857 19.844C37.4217 19.988 37.4897 20.16 37.4897 20.36C37.4897 20.552 37.4217 20.716 37.2857 20.852C37.1497 20.988 36.9857 21.056 36.7937 21.056ZM37.7177 19.508C37.5177 19.508 37.3497 19.44 37.2137 19.304C37.0857 19.168 37.0217 19.004 37.0217 18.812C37.0217 18.612 37.0857 18.44 37.2137 18.296C37.3497 18.152 37.5177 18.08 37.7177 18.08C37.9097 18.08 38.0737 18.152 38.2097 18.296C38.3457 18.44 38.4137 18.612 38.4137 18.812C38.4137 19.004 38.3457 19.168 38.2097 19.304C38.0737 19.44 37.9097 19.508 37.7177 19.508ZM35.9177 19.508C35.7177 19.508 35.5497 19.44 35.4137 19.304C35.2777 19.168 35.2097 19.004 35.2097 18.812C35.2097 18.612 35.2777 18.44 35.4137 18.296C35.5497 18.152 35.7177 18.08 35.9177 18.08C36.1017 18.08 36.2617 18.152 36.3977 18.296C36.5417 18.44 36.6137 18.612 36.6137 18.812C36.6137 19.004 36.5417 19.168 36.3977 19.304C36.2617 19.44 36.1017 19.508 35.9177 19.508ZM39.5078 17.06L39.6278 15.38H41.3438C41.5118 15.38 41.6598 15.372 41.7878 15.356C41.9158 15.332 42.0198 15.296 42.0998 15.248C42.1878 15.2 42.2518 15.14 42.2918 15.068C42.3318 14.996 42.3518 14.912 42.3518 14.816C42.3518 14.72 42.2998 14.568 42.1958 14.36C42.0998 14.144 41.8878 13.884 41.5598 13.58C41.3838 13.42 41.1918 13.252 40.9838 13.076C40.7838 12.892 40.5918 12.72 40.4078 12.56C40.2238 12.392 40.0718 12.244 39.9518 12.116C39.8318 11.988 39.7718 11.896 39.7718 11.84C39.7718 11.72 39.7798 11.588 39.7958 11.444C39.8118 11.3 39.8358 11.168 39.8678 11.048C39.9078 10.928 39.9598 10.84 40.0238 10.784C40.1598 10.656 40.3598 10.508 40.6238 10.34C40.8958 10.164 41.2198 9.976 41.5958 9.776C41.9718 9.568 42.3918 9.352 42.8558 9.128C43.3278 8.896 43.8318 8.664 44.3678 8.432L45.0518 9.896C44.6118 10.088 44.1958 10.276 43.8038 10.46C43.4118 10.636 43.0438 10.812 42.6998 10.988C42.3638 11.156 42.0518 11.324 41.7638 11.492C41.4838 11.652 41.2358 11.812 41.0198 11.972L41.1758 11.084C41.8558 11.604 42.3958 12.072 42.7958 12.488C43.2038 12.904 43.5078 13.276 43.7078 13.604C43.9078 13.924 44.0398 14.212 44.1038 14.468C44.1678 14.716 44.1998 14.936 44.1998 15.128C44.1998 15.32 44.1518 15.528 44.0558 15.752C43.9678 15.968 43.8038 16.176 43.5638 16.376C43.3318 16.576 43.0038 16.74 42.5798 16.868C42.1558 16.996 41.6118 17.06 40.9478 17.06H39.5078Z" fill="black"/>
</svg>
