<svg width="300" height="336" viewBox="0 0 300 336" fill="none" xmlns="http://www.w3.org/2000/svg">
<path d="M298.086 2.36893C296.699 0.860103 294.748 0 292.696 0H7.30424C5.25174 0 3.3015 0.860103 1.9137 2.36893C0.525889 3.87775 -0.153405 5.90409 0.0292008 7.93772L25.7402 295.321C26.0104 298.324 28.1067 300.854 31.0138 301.685L147.955 335.017C148.605 335.199 149.284 335.294 149.956 335.294C150.628 335.294 151.308 335.199 151.958 335.017L269.001 301.685C271.908 300.854 274.004 298.324 274.275 295.321L299.971 7.93772C300.154 5.90409 299.467 3.87775 298.086 2.36893ZM55.0448 196.832L106.175 210.987V65.601H135.392V255.115L55.0448 232.876V196.832ZM246.212 145.78L238.513 235.07L165.471 255.115V221.578L214.774 208.057L216.6 180.723L165.471 189.514V65.601H253.122L250.602 94.757H194.688V153.069L246.212 145.78Z" fill="#BA3232"/>
<path d="M246.212 145.78L238.513 235.07L165.471 255.115V221.578L214.774 208.057L216.6 180.723L165.471 189.514V65.601H253.122L250.602 94.757H194.688V153.069L246.212 145.78Z" fill="white"/>
<path d="M55.0448 196.832L106.175 210.987V65.601H135.392V255.115L55.0448 232.876V196.832Z" fill="white"/>
<path d="M267.336 34.2584L253.823 271.515L149.737 301.036V34.2584H267.336Z" fill="#F22E22"/>
<path d="M165.882 65.2941H252.353L249.831 94.3439H194.706V152.443L245.507 145.181L237.941 234.146L165.882 254.118V220.71L214.522 207.275L216.324 180.041L165.882 188.756V65.2941Z" fill="#D9D9D9" stroke="black"/>
</svg>
