<svg width="224" height="416" viewBox="0 0 224 416" fill="none" xmlns="http://www.w3.org/2000/svg">
<path d="M194.368 0H29.632C13.296 0 0 13.296 0 29.632V64.2V327.8V386.368C0 402.704 13.296 416 29.632 416H194.368C210.704 416 224 402.704 224 386.368V327.8V64.2V29.632C224 13.296 210.704 0 194.368 0ZM29.632 16H194.368C201.88 16 208 22.12 208 29.632V48.016C207.936 48.016 207.872 47.992 207.8 47.992H16.2C16.128 47.992 16.072 48.008 16 48.016V29.632C16 22.12 22.12 16 29.632 16ZM208 328C208 328.112 207.912 328 207.8 328H16V64H208V328ZM194.368 400H29.632C22.12 400 16 393.88 16 386.368V344C16.064 344 16.128 344 16.2 344H207.8C207.872 344 207.928 343.984 208 343.976V386.36C208 393.88 201.88 400 194.368 400Z" fill="url(#paint0_linear_51_24)"/>
<path d="M77.2 130.16L61.2 132.96C53.52 134.32 48 140.96 48 148.72V168.16C48 177.04 55.2 184.16 64 184.16H80C88.8 184.16 96 177.04 96 168.16V145.92C96 141.12 93.92 136.64 90.24 133.6C86.64 130.56 81.84 129.28 77.2 130.16ZM80 168.16H64V148.72L80 145.92V168.16Z" fill="url(#paint1_linear_51_24)"/>
<path d="M80 200H64C55.2 200 48 207.12 48 215.92V235.2C48 242.88 53.52 249.52 61.2 250.8L77.2 253.68C78.16 253.84 79.12 253.92 80 253.92C83.76 253.92 87.44 252.56 90.32 250.16C93.92 247.12 96 242.64 96 238V215.92C96 207.12 88.8 200 80 200ZM80 237.92L64 235.2V216H80V237.92Z" fill="url(#paint2_linear_51_24)"/>
<path d="M170.96 123.36C167.6 120.32 162.96 118.88 158.48 119.44L126.32 123.2C118.24 124.16 112.16 131.04 112.16 139.12V168.16C112.16 177.04 119.36 184.16 128.16 184.16H160.32C169.2 184.16 176.32 177.04 176.32 168.16V135.28C176.32 130.72 174.4 126.4 170.96 123.36ZM160.32 168.16H128.16V139.12L160.32 135.28V168.16Z" fill="url(#paint3_linear_51_24)"/>
<path d="M160.32 199.92H128.16C119.36 199.92 112.16 207.04 112.16 215.84V244.56C112.16 252.64 118.24 259.44 126.32 260.4L158.48 264.16C159.12 264.24 159.76 264.24 160.32 264.24C164.24 264.24 168.08 262.8 171.04 260.24C174.4 257.2 176.32 252.88 176.32 248.32V215.84C176.32 207.04 169.2 199.92 160.32 199.92ZM160.32 248.24L128.16 244.56V215.92H160.32V248.24Z" fill="url(#paint4_linear_51_24)"/>
<defs>
<linearGradient id="paint0_linear_51_24" x1="112" y1="0" x2="112" y2="416" gradientUnits="userSpaceOnUse">
<stop stop-color="#1A6DFF"/>
<stop offset="1" stop-color="#C822FF"/>
</linearGradient>
<linearGradient id="paint1_linear_51_24" x1="72" y1="102" x2="72" y2="250" gradientUnits="userSpaceOnUse">
<stop stop-color="#6DC7FF"/>
<stop offset="1" stop-color="#E6ABFF"/>
</linearGradient>
<linearGradient id="paint2_linear_51_24" x1="72" y1="102" x2="72" y2="250" gradientUnits="userSpaceOnUse">
<stop stop-color="#6DC7FF"/>
<stop offset="1" stop-color="#E6ABFF"/>
</linearGradient>
<linearGradient id="paint3_linear_51_24" x1="144.24" y1="102" x2="144.24" y2="250" gradientUnits="userSpaceOnUse">
<stop stop-color="#6DC7FF"/>
<stop offset="1" stop-color="#E6ABFF"/>
</linearGradient>
<linearGradient id="paint4_linear_51_24" x1="144.24" y1="102" x2="144.24" y2="250" gradientUnits="userSpaceOnUse">
<stop stop-color="#6DC7FF"/>
<stop offset="1" stop-color="#E6ABFF"/>
</linearGradient>
</defs>
</svg>
