<svg width="70" height="31" viewBox="0 0 70 31" fill="none" xmlns="http://www.w3.org/2000/svg">
<path d="M3 23.5L8 28L0 30.5L3 23.5Z" fill="#D9D9D9"/>
<rect x="3" width="67" height="28" rx="5" fill="#D9D9D9"/>
<path d="M26.616 15.38C26.976 15.38 27.252 15.348 27.444 15.284C27.636 15.22 27.768 15.136 27.84 15.032C27.912 14.928 27.948 14.816 27.948 14.696C27.948 14.504 27.892 14.28 27.78 14.024C27.676 13.768 27.544 13.5 27.384 13.22C27.224 12.94 27.056 12.672 26.88 12.416C26.712 12.16 26.56 11.936 26.424 11.744L27.852 10.796C28.196 11.26 28.492 11.72 28.74 12.176C28.988 12.624 29.188 13.04 29.34 13.424C29.5 13.808 29.612 14.136 29.676 14.408C29.74 14.664 29.836 14.864 29.964 15.008C30.1 15.144 30.256 15.24 30.432 15.296C30.608 15.352 30.784 15.38 30.96 15.38C31.264 15.38 31.48 15.46 31.608 15.62C31.744 15.772 31.812 15.964 31.812 16.196C31.812 16.444 31.728 16.652 31.56 16.82C31.4 16.98 31.16 17.06 30.84 17.06C30.488 17.06 30.18 17.012 29.916 16.916C29.652 16.82 29.428 16.668 29.244 16.46C29.06 16.252 28.904 15.988 28.776 15.668L29.508 15.824C29.444 16.048 29.296 16.256 29.064 16.448C28.84 16.632 28.54 16.784 28.164 16.904C27.796 17.016 27.36 17.072 26.856 17.072C26.616 17.072 26.348 17.052 26.052 17.012C25.764 16.972 25.476 16.912 25.188 16.832C24.908 16.752 24.652 16.648 24.42 16.52L25.008 14.996C25.304 15.124 25.588 15.22 25.86 15.284C26.14 15.348 26.392 15.38 26.616 15.38ZM30.8555 17.06L30.9755 15.38C31.2395 15.38 31.4555 15.36 31.6235 15.32C31.7915 15.272 31.9275 15.172 32.0315 15.02C32.1435 14.86 32.2395 14.624 32.3195 14.312C32.4075 13.992 32.5035 13.56 32.6075 13.016L34.1675 13.304C34.1435 13.424 34.1155 13.564 34.0835 13.724C34.0515 13.884 34.0235 14.048 33.9995 14.216C33.9755 14.376 33.9635 14.52 33.9635 14.648C33.9635 14.872 34.0355 15.052 34.1795 15.188C34.3235 15.316 34.5955 15.38 34.9955 15.38C35.1955 15.38 35.3675 15.36 35.5115 15.32C35.6635 15.272 35.7915 15.172 35.8955 15.02C36.0075 14.86 36.1035 14.616 36.1835 14.288C36.2715 13.952 36.3555 13.5 36.4355 12.932L38.0195 13.184C37.9875 13.368 37.9555 13.564 37.9235 13.772C37.8915 13.98 37.8635 14.172 37.8395 14.348C37.8155 14.524 37.8035 14.668 37.8035 14.78C37.8035 14.884 37.8315 14.984 37.8875 15.08C37.9515 15.168 38.0635 15.24 38.2235 15.296C38.3915 15.352 38.6275 15.38 38.9315 15.38C39.1475 15.38 39.3315 15.352 39.4835 15.296C39.6435 15.24 39.7635 15.148 39.8435 15.02C39.9315 14.892 39.9755 14.724 39.9755 14.516C39.9755 14.22 39.9075 13.832 39.7715 13.352C39.6355 12.872 39.4755 12.368 39.2915 11.84L40.9835 11.336C41.1115 11.68 41.2235 12.048 41.3195 12.44C41.4235 12.824 41.5035 13.2 41.5595 13.568C41.6235 13.928 41.6555 14.244 41.6555 14.516C41.6555 14.924 41.5915 15.288 41.4635 15.608C41.3355 15.92 41.1555 16.184 40.9235 16.4C40.6915 16.616 40.4155 16.78 40.0955 16.892C39.7755 17.004 39.4235 17.06 39.0395 17.06C38.5755 17.06 38.1955 17.016 37.8995 16.928C37.6035 16.832 37.3755 16.676 37.2155 16.46C37.0635 16.236 36.9635 15.932 36.9155 15.548H37.3235C37.1555 16.02 36.9675 16.364 36.7595 16.58C36.5515 16.788 36.3035 16.92 36.0155 16.976C35.7355 17.032 35.3835 17.06 34.9595 17.06C34.6955 17.06 34.4235 17.032 34.1435 16.976C33.8715 16.912 33.6275 16.768 33.4115 16.544C33.1955 16.32 33.0355 15.972 32.9315 15.5L33.5795 15.476C33.4115 15.948 33.1915 16.296 32.9195 16.52C32.6555 16.744 32.3515 16.892 32.0075 16.964C31.6635 17.028 31.2795 17.06 30.8555 17.06ZM37.1315 9.632C36.9315 9.632 36.7555 9.556 36.6035 9.404C36.4595 9.252 36.3875 9.072 36.3875 8.864C36.3875 8.656 36.4595 8.48 36.6035 8.336C36.7555 8.192 36.9315 8.12 37.1315 8.12C37.3395 8.12 37.5155 8.192 37.6595 8.336C37.8035 8.48 37.8755 8.656 37.8755 8.864C37.8755 9.072 37.8035 9.252 37.6595 9.404C37.5155 9.556 37.3395 9.632 37.1315 9.632ZM36.1715 11.216C35.9715 11.216 35.7955 11.14 35.6435 10.988C35.4995 10.836 35.4275 10.656 35.4275 10.448C35.4275 10.24 35.4995 10.064 35.6435 9.92C35.7955 9.776 35.9715 9.704 36.1715 9.704C36.3795 9.704 36.5555 9.776 36.6995 9.92C36.8435 10.064 36.9155 10.24 36.9155 10.448C36.9155 10.656 36.8435 10.836 36.6995 10.988C36.5555 11.14 36.3795 11.216 36.1715 11.216ZM38.0315 11.216C37.8315 11.216 37.6555 11.14 37.5035 10.988C37.3595 10.836 37.2875 10.656 37.2875 10.448C37.2875 10.24 37.3595 10.064 37.5035 9.92C37.6555 9.776 37.8315 9.704 38.0315 9.704C38.2395 9.704 38.4155 9.776 38.5595 9.92C38.7035 10.064 38.7755 10.24 38.7755 10.448C38.7755 10.656 38.7035 10.836 38.5595 10.988C38.4155 11.14 38.2395 11.216 38.0315 11.216ZM45.5464 16.664C45.5464 16.48 45.5624 16.264 45.5944 16.016C45.6264 15.768 45.6864 15.488 45.7744 15.176C45.8624 14.856 45.9944 14.5 46.1704 14.108L47.6464 14.624C47.5584 14.872 47.4824 15.1 47.4184 15.308C47.3544 15.508 47.3064 15.696 47.2744 15.872C47.2424 16.04 47.2264 16.208 47.2264 16.376C47.2264 16.64 47.2824 16.876 47.3944 17.084C47.5144 17.3 47.6864 17.48 47.9104 17.624C48.1344 17.776 48.4064 17.892 48.7264 17.972C49.0544 18.052 49.4304 18.092 49.8544 18.092C50.2944 18.092 50.6864 18.072 51.0304 18.032C51.3824 17.992 51.6784 17.932 51.9184 17.852C52.1664 17.772 52.3544 17.668 52.4824 17.54C52.6104 17.42 52.6744 17.28 52.6744 17.12C52.6744 17.048 52.6464 16.98 52.5904 16.916C52.5424 16.852 52.4584 16.784 52.3384 16.712C52.2264 16.64 52.0744 16.564 51.8824 16.484C51.6984 16.404 51.4744 16.316 51.2104 16.22L51.6064 14.528C51.9504 14.672 52.2744 14.8 52.5784 14.912C52.8904 15.016 53.1864 15.104 53.4664 15.176C53.7464 15.24 54.0104 15.292 54.2584 15.332C54.5064 15.364 54.7384 15.38 54.9544 15.38C55.2584 15.38 55.4744 15.46 55.6024 15.62C55.7304 15.772 55.7944 15.964 55.7944 16.196C55.7944 16.444 55.7104 16.652 55.5424 16.82C55.3744 16.98 55.1384 17.06 54.8344 17.06C54.7704 17.06 54.7064 17.06 54.6424 17.06C54.5864 17.06 54.5264 17.06 54.4624 17.06C54.4064 17.06 54.3464 17.06 54.2824 17.06C54.2984 17.14 54.3064 17.208 54.3064 17.264C54.3064 17.328 54.3064 17.388 54.3064 17.444C54.3064 17.708 54.2144 17.976 54.0304 18.248C53.8544 18.52 53.5784 18.772 53.2024 19.004C52.8264 19.236 52.3464 19.42 51.7624 19.556C51.1864 19.7 50.4984 19.772 49.6984 19.772C48.8344 19.772 48.0904 19.66 47.4664 19.436C46.8504 19.22 46.3744 18.88 46.0384 18.416C45.7104 17.96 45.5464 17.376 45.5464 16.664ZM54.832 17.06L54.952 15.38C55.24 15.38 55.488 15.352 55.696 15.296C55.904 15.24 56.08 15.128 56.224 14.96C56.368 14.784 56.488 14.528 56.584 14.192C56.688 13.856 56.78 13.408 56.86 12.848L58.432 13.112C58.416 13.232 58.392 13.372 58.36 13.532C58.336 13.692 58.312 13.856 58.288 14.024C58.272 14.184 58.264 14.336 58.264 14.48C58.264 14.624 58.292 14.752 58.348 14.864C58.404 14.976 58.492 15.072 58.612 15.152C58.74 15.224 58.904 15.28 59.104 15.32C59.312 15.36 59.564 15.38 59.86 15.38C60.164 15.38 60.38 15.46 60.508 15.62C60.636 15.772 60.7 15.964 60.7 16.196C60.7 16.444 60.616 16.652 60.448 16.82C60.288 16.98 60.052 17.06 59.74 17.06C59.38 17.06 59.052 17.032 58.756 16.976C58.468 16.92 58.216 16.828 58 16.7C57.792 16.564 57.62 16.388 57.484 16.172C57.356 15.948 57.276 15.676 57.244 15.356H57.82C57.676 15.74 57.492 16.048 57.268 16.28C57.052 16.504 56.808 16.672 56.536 16.784C56.264 16.896 55.98 16.968 55.684 17C55.396 17.04 55.112 17.06 54.832 17.06ZM57.028 21.056C56.828 21.056 56.66 20.988 56.524 20.852C56.396 20.716 56.332 20.552 56.332 20.36C56.332 20.16 56.396 19.988 56.524 19.844C56.66 19.7 56.828 19.628 57.028 19.628C57.22 19.628 57.384 19.7 57.52 19.844C57.656 19.988 57.724 20.16 57.724 20.36C57.724 20.552 57.656 20.716 57.52 20.852C57.384 20.988 57.22 21.056 57.028 21.056ZM57.952 19.508C57.752 19.508 57.584 19.44 57.448 19.304C57.32 19.168 57.256 19.004 57.256 18.812C57.256 18.612 57.32 18.44 57.448 18.296C57.584 18.152 57.752 18.08 57.952 18.08C58.144 18.08 58.308 18.152 58.444 18.296C58.58 18.44 58.648 18.612 58.648 18.812C58.648 19.004 58.58 19.168 58.444 19.304C58.308 19.44 58.144 19.508 57.952 19.508ZM56.152 19.508C55.952 19.508 55.784 19.44 55.648 19.304C55.512 19.168 55.444 19.004 55.444 18.812C55.444 18.612 55.512 18.44 55.648 18.296C55.784 18.152 55.952 18.08 56.152 18.08C56.336 18.08 56.496 18.152 56.632 18.296C56.776 18.44 56.848 18.612 56.848 18.812C56.848 19.004 56.776 19.168 56.632 19.304C56.496 19.44 56.336 19.508 56.152 19.508ZM59.7422 17.06L59.8622 15.38H61.5782C61.7462 15.38 61.8942 15.372 62.0222 15.356C62.1502 15.332 62.2542 15.296 62.3342 15.248C62.4222 15.2 62.4862 15.14 62.5262 15.068C62.5662 14.996 62.5862 14.912 62.5862 14.816C62.5862 14.72 62.5342 14.568 62.4302 14.36C62.3342 14.144 62.1222 13.884 61.7942 13.58C61.6182 13.42 61.4262 13.252 61.2182 13.076C61.0182 12.892 60.8262 12.72 60.6422 12.56C60.4582 12.392 60.3062 12.244 60.1862 12.116C60.0662 11.988 60.0062 11.896 60.0062 11.84C60.0062 11.72 60.0142 11.588 60.0302 11.444C60.0462 11.3 60.0702 11.168 60.1022 11.048C60.1422 10.928 60.1942 10.84 60.2582 10.784C60.3942 10.656 60.5942 10.508 60.8582 10.34C61.1302 10.164 61.4542 9.976 61.8302 9.776C62.2062 9.568 62.6262 9.352 63.0902 9.128C63.5622 8.896 64.0662 8.664 64.6022 8.432L65.2862 9.896C64.8462 10.088 64.4302 10.276 64.0382 10.46C63.6462 10.636 63.2782 10.812 62.9342 10.988C62.5982 11.156 62.2862 11.324 61.9982 11.492C61.7182 11.652 61.4702 11.812 61.2542 11.972L61.4102 11.084C62.0902 11.604 62.6302 12.072 63.0302 12.488C63.4382 12.904 63.7422 13.276 63.9422 13.604C64.1422 13.924 64.2742 14.212 64.3382 14.468C64.4022 14.716 64.4342 14.936 64.4342 15.128C64.4342 15.32 64.3862 15.528 64.2902 15.752C64.2022 15.968 64.0382 16.176 63.7982 16.376C63.5662 16.576 63.2382 16.74 62.8142 16.868C62.3902 16.996 61.8462 17.06 61.1822 17.06H59.7422Z" fill="black"/>
<path d="M22.6722 5.40365L13.4285 14.7467L10.9286 11.9987C10.3963 11.4605 9.53357 11.4605 9.00129 11.9987L9 12C8.46771 12.5382 8.46771 13.4099 9 13.9481L12.3389 17.5437C12.9406 18.1521 13.9164 18.1521 14.5188 17.5437L24.6007 7.353C25.133 6.8148 25.133 5.94315 24.6007 5.40495L24.5994 5.40365C24.0672 4.86545 23.2044 4.86545 22.6722 5.40365Z" fill="url(#paint0_linear_97_56)"/>
<defs>
<linearGradient id="paint0_linear_97_56" x1="15.6034" y1="-0.9852" x2="16.3572" y2="17.5333" gradientUnits="userSpaceOnUse">
<stop stop-color="#42D778"/>
<stop offset="0.428" stop-color="#3DCA76"/>
<stop offset="1" stop-color="#34B171"/>
</linearGradient>
</defs>
</svg>
